<svg width="48" height="48" viewBox="0 0 48 48" fill="none" xmlns="http://www.w3.org/2000/svg">
<rect width="48" height="48" rx="24" fill="#8941FF"/>
<path fill-rule="evenodd" clip-rule="evenodd" d="M20.2947 17.3243C20.4637 15.4073 22.0992 14 24.0001 14C25.901 14 27.5365 15.4073 27.7055 17.3243C27.7941 18.3283 27.8711 19.4684 27.8711 20.4103C27.8711 21.3521 27.7941 22.4922 27.7055 23.4962C27.5365 25.4132 25.901 26.8205 24.0001 26.8205C22.0992 26.8205 20.4637 25.4132 20.2947 23.4962C20.2061 22.4922 20.1292 21.3521 20.1292 20.4103C20.1292 19.4684 20.2061 18.3283 20.2947 17.3243ZM24.0001 15.5385C22.8658 15.5385 21.933 16.3715 21.8372 17.4586C21.7498 18.4492 21.6775 19.5363 21.6775 20.4103C21.6775 21.2842 21.7498 22.3713 21.8372 23.3619C21.933 24.4491 22.8658 25.2821 24.0001 25.2821C25.1344 25.2821 26.0672 24.4491 26.1631 23.3619C26.2504 22.3713 26.3227 21.2842 26.3227 20.4103C26.3227 19.5363 26.2504 18.4492 26.1631 17.4587C26.0672 16.3715 25.1344 15.5385 24.0001 15.5385Z" fill="white"/>
<path fill-rule="evenodd" clip-rule="evenodd" d="M16.7742 20.1523C17.2018 20.1523 17.5484 20.4967 17.5484 20.9216C17.5484 21.8409 17.6178 22.9063 17.7222 23.9853C18.0235 27.0981 20.7692 29.3831 24 29.3831C27.2308 29.3831 29.9765 27.0981 30.2778 23.9853C30.3822 22.9063 30.4516 21.8409 30.4516 20.9216C30.4516 20.4967 30.7982 20.1523 31.2258 20.1523C31.6534 20.1523 32 20.4967 32 20.9216C32 21.9093 31.9259 23.0284 31.8191 24.1325C31.459 27.8527 28.3909 30.546 24.7742 30.8854V33.2293C24.7742 33.6541 24.4276 33.9985 24 33.9985C23.5724 33.9985 23.2258 33.6541 23.2258 33.2293V30.8854C19.6091 30.546 16.541 27.8527 16.1809 24.1325C16.0741 23.0284 16 21.9093 16 20.9216C16 20.4967 16.3466 20.1523 16.7742 20.1523Z" fill="white"/>
</svg>
