<svg width="48" height="48" viewBox="0 0 48 48" fill="none" xmlns="http://www.w3.org/2000/svg">
<rect width="48" height="48" rx="24" fill="#FFB341"/>
<path fill-rule="evenodd" clip-rule="evenodd" d="M22.4606 13.25L25.5394 13.25C27.1427 13.25 28.3997 13.25 29.4039 13.3455C30.4274 13.4428 31.2655 13.6446 32.0044 14.0973C32.7781 14.5714 33.4286 15.2219 33.9027 15.9956C34.3554 16.7344 34.5572 17.5726 34.6545 18.5961C34.75 19.6003 34.75 20.8572 34.75 22.4606L34.75 23.5278C34.75 24.6691 34.75 25.564 34.7007 26.2868C34.6505 27.0223 34.5468 27.6344 34.3123 28.2004C33.7287 29.6093 32.6093 30.7287 31.2004 31.3123C30.3955 31.6457 29.4786 31.7197 28.2233 31.7413C27.7842 31.7489 27.5061 31.7545 27.2941 31.7779C27.096 31.7999 27.0192 31.832 26.9742 31.8582C26.9268 31.8857 26.8622 31.936 26.7501 32.0898C26.6287 32.2564 26.4916 32.4865 26.2742 32.8539L25.7321 33.7697C24.9585 35.0767 23.0415 35.0767 22.2679 33.7697L21.7258 32.8539C21.5083 32.4865 21.3712 32.2564 21.2498 32.0898C21.1377 31.936 21.0731 31.8857 21.0257 31.8582C20.9808 31.832 20.904 31.7999 20.7059 31.7779C20.4939 31.7545 20.2157 31.7489 19.7767 31.7413C18.5214 31.7197 17.6045 31.6457 16.7996 31.3123C15.3907 30.7287 14.2713 29.6093 13.6877 28.2004C13.4532 27.6344 13.3495 27.0223 13.2993 26.2868C13.25 25.564 13.25 24.6691 13.25 23.5278L13.25 22.4606C13.25 20.8573 13.25 19.6003 13.3455 18.5961C13.4428 17.5726 13.6446 16.7345 14.0973 15.9956C14.5714 15.2219 15.2219 14.5714 15.9956 14.0973C16.7345 13.6446 17.5726 13.4428 18.5961 13.3455C19.6003 13.25 20.8573 13.25 22.4606 13.25ZM18.7381 14.8387C17.8243 14.9256 17.2429 15.0922 16.7794 15.3763C16.2075 15.7267 15.7267 16.2075 15.3763 16.7794C15.0922 17.2429 14.9256 17.8243 14.8387 18.7381C14.7508 19.663 14.75 20.8488 14.75 22.5L14.75 23.5C14.75 24.6751 14.7504 25.5189 14.7958 26.1847C14.8408 26.8438 14.9274 27.2736 15.0735 27.6264C15.5049 28.6678 16.3322 29.4951 17.3736 29.9265C17.8892 30.1401 18.5471 30.2199 19.8025 30.2416L19.8343 30.2421C20.2323 30.249 20.5811 30.2549 20.871 30.287C21.1825 30.3215 21.4871 30.3912 21.7799 30.5615C22.0702 30.7304 22.2795 30.9559 22.4621 31.2063C22.6307 31.4378 22.804 31.7306 23.0004 32.0623L23.5587 33.0057C23.7515 33.3313 24.2485 33.3313 24.4412 33.0057L24.9996 32.0623C25.1959 31.7306 25.3692 31.4378 25.5379 31.2063C25.7204 30.9559 25.9298 30.7304 26.2201 30.5615C26.5129 30.3912 26.8175 30.3215 27.129 30.287C27.4189 30.2549 27.7676 30.249 28.1656 30.2421L28.1975 30.2416C29.4529 30.2199 30.1108 30.1401 30.6264 29.9265C31.6678 29.4951 32.4951 28.6678 32.9265 27.6264C33.0726 27.2736 33.1592 26.8438 33.2042 26.1847C33.2496 25.5189 33.25 24.6751 33.25 23.5L33.25 22.5C33.25 20.8488 33.2492 19.663 33.1613 18.7381C33.0744 17.8243 32.9078 17.2429 32.6237 16.7794C32.2733 16.2075 31.7925 15.7267 31.2206 15.3763C30.7571 15.0922 30.1757 14.9256 29.2619 14.8387C28.337 14.7508 27.1512 14.75 25.5 14.75L22.5 14.75C20.8488 14.75 19.663 14.7508 18.7381 14.8387ZM19.25 21C19.25 20.5858 19.5858 20.25 20 20.25L28 20.25C28.4142 20.25 28.75 20.5858 28.75 21C28.75 21.4142 28.4142 21.75 28 21.75L20 21.75C19.5858 21.75 19.25 21.4142 19.25 21ZM19.25 24.5C19.25 24.0858 19.5858 23.75 20 23.75L25.5 23.75C25.9142 23.75 26.25 24.0858 26.25 24.5C26.25 24.9142 25.9142 25.25 25.5 25.25L20 25.25C19.5858 25.25 19.25 24.9142 19.25 24.5Z" fill="white"/>
</svg>
