<svg width="19" height="20" viewBox="0 0 19 20" fill="none" xmlns="http://www.w3.org/2000/svg">
<path d="M12 4.24C12.335 4.24 12.588 4.381 12.777 4.582C13.082 4.906 13.211 5.383 13.401 5.778C14.375 7.80617 15.9127 9.5108 17.83 10.688L18.264 10.945C18.657 11.184 18.999 11.463 19 11.998C19.001 12.73 18.364 12.984 17.83 13.311C15.9127 14.4882 14.3751 16.1929 13.401 18.221C13.211 18.617 13.081 19.094 12.777 19.418C12.589 19.619 12.335 19.76 12 19.76C11.665 19.76 11.411 19.619 11.223 19.418C11.047 19.231 10.931 18.996 10.828 18.756L10.678 18.396C10.653 18.3374 10.6266 18.2794 10.599 18.222C9.62505 16.1938 8.0874 14.4892 6.17003 13.312L5.84903 13.121C5.41603 12.861 4.99903 12.565 5.00003 11.998C5.00203 11.268 5.63703 11.016 6.17003 10.689C8.0874 9.5118 9.62505 7.80717 10.599 5.779C10.789 5.383 10.919 4.906 11.223 4.582C11.411 4.382 11.665 4.24 12 4.24ZM4.74703 3.825C4.89603 4.008 4.98503 4.215 5.08703 4.426C5.36103 4.996 5.77503 5.486 6.28803 5.848L6.48603 5.978C7.34203 6.503 7.37403 7.388 6.60603 7.942L6.48603 8.022C5.8799 8.39403 5.39384 8.93287 5.08603 9.574L4.97203 9.816C4.87503 10.016 4.76203 10.207 4.56603 10.334C4.25103 10.536 3.74903 10.536 3.43403 10.334C3.16903 10.164 3.04403 9.846 2.91403 9.574C2.60617 8.9329 2.12012 8.39408 1.51403 8.022C1.33603 7.912 1.16603 7.809 1.01903 7.655C0.875307 7.46646 0.797549 7.2359 0.79773 6.99883C0.797911 6.76176 0.87602 6.53132 1.02003 6.343C1.17003 6.187 1.33003 6.091 1.51503 5.978C2.12079 5.60582 2.60649 5.067 2.91403 4.426C3.01803 4.21 3.10103 4.012 3.25403 3.826C3.45394 3.63168 3.72174 3.52297 4.00053 3.52297C4.27932 3.52297 4.54712 3.63168 4.74703 3.826V3.825ZM8.00003 0C8.26525 0 8.5196 0.105357 8.70714 0.292893C8.89467 0.48043 9.00003 0.734784 9.00003 1C9.26525 1 9.5196 1.10536 9.70714 1.29289C9.89467 1.48043 10 1.73478 10 2C10 2.26522 9.89467 2.51957 9.70714 2.70711C9.5196 2.89464 9.26525 3 9.00003 3C9.00003 3.26522 8.89467 3.51957 8.70714 3.70711C8.5196 3.89464 8.26525 4 8.00003 4C7.73481 4 7.48046 3.89464 7.29292 3.70711C7.10539 3.51957 7.00003 3.26522 7.00003 3C6.73481 3 6.48046 2.89464 6.29292 2.70711C6.10539 2.51957 6.00003 2.26522 6.00003 2C6.00003 1.73478 6.10539 1.48043 6.29292 1.29289C6.48046 1.10536 6.73481 1 7.00003 1C7.00003 0.734784 7.10539 0.48043 7.29292 0.292893C7.48046 0.105357 7.73481 0 8.00003 0Z" fill="white"/>
</svg>
